<svg width="725" height="766" viewBox="0 0 725 766" fill="none" xmlns="http://www.w3.org/2000/svg">
<path d="M167.214 418.525V244.281" stroke="white" stroke-linejoin="round"/>
<path d="M465.139 400.904V427.417V575.149" stroke="white" stroke-linejoin="round"/>
<path d="M565.553 360.073V534.317" stroke="white" stroke-linejoin="round"/>
<path d="M452.275 420.124V434.104V594.369" stroke="white" stroke-linejoin="round"/>
<path d="M426.32 231.748V405.993" stroke="white" stroke-linejoin="round"/>
<path d="M416.529 225.469V267.074V278.442V399.715" stroke="white" stroke-linejoin="round"/>
<path d="M474.932 407.182V581.427" stroke="white" stroke-linejoin="round"/>
<path d="M361.65 467.235V641.48" stroke="white" stroke-linejoin="round"/>
<path d="M313.041 585.908V411.663" stroke="white" stroke-linejoin="round"/>
<path d="M264.432 528.313V354.066" stroke="white" stroke-linejoin="round"/>
<path d="M215.823 475.286V301.041" stroke="white" stroke-linejoin="round"/>
<path d="M516.944 184.636V358.884" stroke="white" stroke-linejoin="round"/>
<path d="M157.422 412.247V238.002" stroke="white" stroke-linejoin="round"/>
<path d="M270.701 179.685L361.326 132.576" stroke="white" stroke-linejoin="round"/>
<path d="M280.493 185.964L371.116 138.853" stroke="white" stroke-linejoin="round"/>
<path d="M565.553 534.317L474.932 581.428" stroke="white" stroke-linejoin="round"/>
<path d="M442.482 413.846L403.664 434.025L351.858 460.956" stroke="white" stroke-linejoin="round"/>
<path d="M157.422 238.002L248.045 190.891" stroke="white" stroke-linejoin="round"/>
<path d="M426.32 231.748L516.945 184.636" stroke="white" stroke-linejoin="round"/>
<path d="M313.041 411.663L355.056 389.822L367.921 383.135L403.664 364.552" stroke="white" stroke-linejoin="round"/>
<path d="M329.103 240.475L371.117 218.634L419.728 193.363" stroke="white" stroke-linejoin="round"/>
<path d="M264.432 354.066L306.446 332.225L329.102 320.447L355.055 306.957" stroke="white" stroke-linejoin="round"/>
<path d="M215.823 301.041L257.838 279.2L270.702 272.512L306.447 253.929" stroke="white" stroke-linejoin="round"/>
<path d="M167.214 244.281L257.838 197.169" stroke="white" stroke-linejoin="round"/>
<path d="M516.945 358.884L468.336 384.152L426.32 405.993" stroke="white" stroke-linejoin="round"/>
<path d="M452.275 594.37L361.65 641.48" stroke="white" stroke-linejoin="round"/>
<path d="M565.553 360.073L474.932 407.182" stroke="white" stroke-linejoin="round"/>
<path d="M555.763 353.793L516.945 373.971L468.337 399.241L465.139 400.903" stroke="white" stroke-linejoin="round"/>
<path d="M270.701 261.143V179.685" stroke="white" stroke-linejoin="round"/>
<path d="M319.311 314.171V234.196" stroke="white" stroke-linejoin="round"/>
<path d="M367.921 292.341V371.766" stroke="white" stroke-linejoin="round"/>
<path d="M355.057 378.453V306.957" stroke="white" stroke-linejoin="round"/>
<path d="M257.838 267.831V197.169" stroke="white" stroke-linejoin="round"/>
<path d="M280.493 256.053V185.964" stroke="white" stroke-linejoin="round"/>
<path d="M403.664 364.552V434.025" stroke="white" stroke-linejoin="round"/>
<path d="M329.103 309.079V240.475" stroke="white" stroke-linejoin="round"/>
<path d="M371.117 138.853V207.265" stroke="white" stroke-linejoin="round"/>
<path d="M377.712 298.62V366.676" stroke="white" stroke-linejoin="round"/>
<path d="M306.447 320.856V253.929" stroke="white" stroke-linejoin="round"/>
<path d="M367.921 292.341L416.529 267.073" stroke="white" stroke-linejoin="round"/>
<path d="M303.249 508.134L264.432 528.313" stroke="white" stroke-linejoin="round"/>
<path d="M167.214 418.525L206.031 398.346" stroke="white" stroke-linejoin="round"/>
<path d="M351.858 565.729L313.041 585.908" stroke="white" stroke-linejoin="round"/>
<path d="M254.641 455.106L215.823 475.286" stroke="white" stroke-linejoin="round"/>
<path d="M377.712 298.62L416.53 278.442" stroke="white" stroke-linejoin="round"/>
<path d="M419.728 193.363V223.809" stroke="white" stroke-linejoin="round"/>
<path d="M468.336 384.152V399.242" stroke="white" stroke-linejoin="round"/>
<path d="M465.138 427.417L452.275 434.104" stroke="white" stroke-linejoin="round"/>
<path d="M270.701 179.685L280.493 185.964" stroke="white" stroke-linejoin="round"/>
<path d="M416.529 225.469L426.32 231.748" stroke="white" stroke-linejoin="round"/>
<path d="M313.042 411.663L303.25 405.384" stroke="white" stroke-linejoin="round"/>
<path d="M409.935 187.085L419.728 193.364" stroke="white" stroke-linejoin="round"/>
<path d="M442.482 413.846L452.276 420.124" stroke="white" stroke-linejoin="round"/>
<path d="M313.042 585.908L303.25 579.629" stroke="white" stroke-linejoin="round"/>
<path d="M393.873 358.273L403.663 364.552" stroke="white" stroke-linejoin="round"/>
<path d="M345.264 300.679L355.055 306.958" stroke="white" stroke-linejoin="round"/>
<path d="M167.214 418.525L157.422 412.247" stroke="white" stroke-linejoin="round"/>
<path d="M319.311 234.196L329.102 240.475" stroke="white" stroke-linejoin="round"/>
<path d="M507.154 178.36L516.945 184.636" stroke="white" stroke-linejoin="round"/>
<path d="M465.139 400.904L474.932 407.182" stroke="white" stroke-linejoin="round"/>
<path d="M367.921 292.341L377.711 298.62" stroke="white" stroke-linejoin="round"/>
<path d="M361.65 467.235L351.858 460.956" stroke="white" stroke-linejoin="round"/>
<path d="M264.432 354.066L254.641 347.79" stroke="white" stroke-linejoin="round"/>
<path d="M215.823 301.041L206.031 294.762" stroke="white" stroke-linejoin="round"/>
<path d="M555.763 353.793L565.553 360.072" stroke="white" stroke-linejoin="round"/>
<path d="M361.326 132.576L371.117 138.853" stroke="white" stroke-linejoin="round"/>
<path d="M264.432 528.313L254.641 522.034" stroke="white" stroke-linejoin="round"/>
<path d="M215.823 475.286L206.031 469.007" stroke="white" stroke-linejoin="round"/>
<path d="M248.045 190.891L257.837 197.169" stroke="white" stroke-linejoin="round"/>
<path d="M157.422 238.002L167.214 244.281" stroke="white" stroke-linejoin="round"/>
<path d="M416.529 399.715L426.32 405.993" stroke="white" stroke-linejoin="round"/>
<path d="M296.654 247.651L306.446 253.93" stroke="white" stroke-linejoin="round"/>
<path d="M474.932 581.427L465.139 575.149" stroke="white" stroke-linejoin="round"/>
<path d="M361.65 641.48L351.858 635.202" stroke="white" stroke-linejoin="round"/>
<path d="M351.858 635.202V565.729V460.956" stroke="white" stroke-linejoin="round"/>
<path d="M303.25 579.629V508.134V405.384" stroke="white" stroke-linejoin="round"/>
<path d="M254.641 522.034V455.106V347.79" stroke="white" stroke-linejoin="round"/>
<path d="M206.031 469.007V398.346V294.762" stroke="white" stroke-linejoin="round"/>
<path d="M452.275 420.124L403.664 445.394L361.65 467.235" stroke="white" stroke-linejoin="round"/>
<path d="M319.311 234.196L371.116 207.265L409.934 187.085" stroke="white" stroke-linejoin="round"/>
<path d="M303.25 405.384L355.056 378.453L367.922 371.766L377.712 366.676L393.874 358.273" stroke="white" stroke-linejoin="round"/>
<path d="M254.641 347.79L306.447 320.857L319.311 314.171L329.103 309.079L345.264 300.679" stroke="white" stroke-linejoin="round"/>
<path d="M416.529 225.469L419.727 223.809L507.154 178.36" stroke="white" stroke-linejoin="round"/>
<path d="M206.031 294.762L257.838 267.831L270.702 261.144L280.493 256.054L296.655 247.651" stroke="white" stroke-linejoin="round"/>
</svg>
