<svg width="725" height="766" viewBox="0 0 725 766" fill="none" xmlns="http://www.w3.org/2000/svg">
<path d="M522.254 315.186L524.389 316.298L528.793 318.94L533.03 321.651L537.104 324.43L541.003 327.273L544.723 330.177L548.265 333.139L551.624 336.157L554.797 339.226L557.78 342.348L560.569 345.514L563.165 348.723L565.563 351.974L567.759 355.261L569.75 358.581L571.54 361.933L573.121 365.311L574.497 368.713L575.663 372.137L576.617 375.576L577.362 379.029L577.894 382.493L578.213 385.963L578.32 389.437L578.213 468.771L577.894 472.242L577.362 475.706L576.617 479.159L575.663 482.599L574.497 486.021L573.121 489.423L571.54 492.802L569.75 496.153L567.759 499.474L565.563 502.761L563.165 506.011L560.569 509.221L557.78 512.388L554.797 515.508L551.624 518.578L548.265 521.596L544.723 524.559L541.003 527.462L537.104 530.305L533.03 533.083L528.793 535.795L524.389 538.437L519.825 541.007L515.109 543.502L510.241 545.919L505.225 548.258L500.068 550.514L494.778 552.687L489.355 554.773L483.807 556.77L478.141 558.678L472.361 560.493L466.471 562.215L460.482 563.841L454.391 565.369L448.212 566.799L441.949 568.128H441.911L435.572 569.359L435.223 569.423L429.192 570.482L428.869 570.533L422.713 571.503L416.173 572.42L409.58 573.231L409.412 573.249L402.941 573.936L396.26 574.533L389.549 575.023L389.314 575.036L382.812 575.404L376.051 575.677L375.789 575.683L369.28 575.84L369.101 575.842L362.5 575.895L356.366 575.846L356.053 575.843L355.738 575.84L355.723 575.84L349.212 575.683L348.949 575.677L342.19 575.404L335.687 575.036L335.51 575.026L335.451 575.023L328.738 574.533L322.059 573.936L315.589 573.249L315.421 573.231L308.828 572.42L302.288 571.503L296.131 570.533L295.808 570.482L289.776 569.423L289.428 569.359L283.091 568.128H283.051L276.787 566.799L270.608 565.369L264.52 563.841L258.528 562.215L252.639 560.493L246.858 558.678L241.191 556.77L235.644 554.773L230.222 552.687L224.931 550.514L219.776 548.258L214.761 545.919L209.892 543.502L205.174 541.007L200.611 538.437L196.208 535.795L191.969 533.083L187.898 530.305L183.999 527.462L180.277 524.559L176.734 521.596L173.375 518.578L170.203 515.508L167.22 512.388L164.43 509.221L161.836 506.011L159.439 502.761L157.243 499.474L155.249 496.153L153.46 492.802L151.877 489.423L150.503 486.021L149.337 482.599L148.382 479.159L147.638 475.706L147.106 472.242L146.786 468.771L146.68 389.437L146.786 385.963L147.106 382.493L147.638 379.029L148.382 375.576L149.337 372.137L150.503 368.713L151.877 365.311L153.46 361.933L155.249 358.581L157.243 355.261L159.439 351.974L161.836 348.723L164.43 345.514L167.22 342.348L170.203 339.226L173.375 336.157L176.734 333.139L180.277 330.177L183.999 327.273L187.898 324.43L191.969 321.651L196.208 318.94L200.611 316.298L202.491 315.186" stroke="white" stroke-linejoin="round"/>
<path d="M146.786 388.86L146.68 392.363L146.786 395.866L147.106 399.366L147.638 402.858L148.381 406.34L149.337 409.808L150.503 413.259L151.877 416.691L153.46 420.097L155.249 423.477L157.243 426.824L159.439 430.14L161.835 433.416L164.43 436.654L167.22 439.846L170.203 442.992L173.375 446.089L176.734 449.132L180.277 452.118L183.999 455.046L187.898 457.912L191.968 460.714L196.207 463.449L200.611 466.113L205.174 468.703L209.892 471.22L214.761 473.657L219.775 476.015L224.931 478.291L230.222 480.48L235.644 482.584L241.191 484.599L246.858 486.522L252.638 488.353L258.528 490.088L264.519 491.728L270.608 493.268L276.787 494.71L283.051 496.051L289.393 497.289L295.808 498.424L302.288 499.455L308.828 500.379L315.42 501.196L322.059 501.907L328.738 502.509L335.45 503.003L342.189 503.387L348.948 503.662L355.72 503.827L362.5 503.882L369.278 503.827L376.049 503.662L382.81 503.387L389.549 503.003L396.263 502.509L402.941 501.907L409.579 501.196L416.171 500.379L422.713 499.455L429.193 498.424L435.605 497.289L441.949 496.051L448.211 494.71L454.39 493.268L460.479 491.728L466.471 490.088L472.359 488.353L478.143 486.522L483.809 484.599L489.356 482.584L494.777 480.48L500.069 478.291L505.225 476.015L510.237 473.657L515.109 471.22L519.827 468.703L524.39 466.113L528.792 463.449L533.032 460.714L537.103 457.912L540.999 455.046L544.722 452.118L548.265 449.132L551.626 446.089L554.796 442.992L557.78 439.846L560.569 436.654L563.165 433.416L565.56 430.14L567.757 426.824L569.75 423.477L571.538 420.097L573.121 416.691L574.496 413.259L575.663 409.808L576.618 406.34L577.361 402.858L577.892 399.366L578.212 395.866L578.32 392.363" stroke="white" stroke-linejoin="round"/>
<path d="M273.121 242.514L268.084 244.474L264.061 246.023L260.135 247.635L256.309 249.309L252.588 251.045L248.976 252.838L245.475 254.689L242.089 256.596L238.822 258.557L235.677 260.568L232.656 262.63L229.763 264.74L227.001 266.894L224.373 269.092L221.88 271.332L219.526 273.609L217.313 275.925L215.243 278.275L213.318 280.656L211.54 283.068L209.91 285.507L208.431 287.97L207.103 290.457L205.929 292.964L204.909 295.488L204.044 298.029L203.335 300.58L202.783 303.142L202.388 305.713L202.152 308.288L202.072 310.866L202.152 369.731L202.388 372.307L202.783 374.877L203.335 377.439L204.044 379.991L204.909 382.531L205.929 385.055L207.103 387.562L208.431 390.049L209.91 392.513L211.54 394.952L213.318 397.363L215.243 399.745L217.313 402.095L219.526 404.41L221.88 406.688L224.373 408.927L227.001 411.125L229.763 413.28L232.656 415.389L235.677 417.451L238.822 419.463L242.089 421.423L245.475 423.33L248.976 425.181L252.588 426.975L256.309 428.71L260.135 430.385L264.061 431.996L268.084 433.544L272.2 435.027L276.404 436.442L280.694 437.789L285.064 439.066L289.509 440.273L294.027 441.407L298.612 442.468L303.26 443.454H303.289L307.991 444.368L308.249 444.415L312.725 445.201L312.965 445.238L317.534 445.959L322.386 446.639L327.278 447.241L327.403 447.254L332.204 447.763L337.16 448.207L342.14 448.57L342.184 448.572L342.315 448.58L347.14 448.853L352.156 449.055L352.351 449.06L357.182 449.176L357.193 449.177L357.427 449.178L357.659 449.18L362.211 449.217L367.109 449.178L367.241 449.176L372.071 449.06L372.266 449.055L377.282 448.853L382.106 448.58L382.281 448.57L387.261 448.207L392.218 447.763L397.02 447.254L397.144 447.241L402.036 446.639L406.889 445.959L411.456 445.238L411.696 445.201L416.171 444.415L416.43 444.368L421.134 443.454H421.162L425.809 442.468L430.393 441.407L434.913 440.273L439.357 439.066L443.728 437.789L448.016 436.442L452.22 435.027L456.337 433.544L460.361 431.996L464.286 430.385L468.112 428.71L471.834 426.975L475.446 425.181L478.945 423.33L482.332 421.423L485.6 419.463L488.744 417.451L491.766 415.389L494.659 413.28L497.42 411.125L500.048 408.927L502.54 406.688L504.895 404.41L507.108 402.095L509.178 399.745L511.104 397.363L512.883 394.952L514.513 392.513L515.99 390.049L517.318 387.562L518.491 385.055L519.512 382.531L520.378 379.991L521.085 377.439L521.638 374.877L522.033 372.307L522.27 369.731L522.349 310.866L522.27 308.288L522.033 305.713L521.638 303.142L521.085 300.58L520.378 298.029L519.512 295.488L518.491 292.964L517.318 290.457L515.99 287.97L514.513 285.507L512.883 283.068L511.104 280.656L509.178 278.275L507.108 275.925L504.895 273.609L502.54 271.332L500.048 269.092L497.42 266.894L494.659 264.74L491.766 262.63L488.744 260.568L485.6 258.557L482.332 256.596L478.945 254.689L475.446 252.838L471.834 251.045L468.112 249.309L464.286 247.635L460.361 246.023L456.337 244.474L451.215 242.514" stroke="white" stroke-linejoin="round"/>
<path d="M202.072 313.037L202.151 315.636L202.388 318.233L202.783 320.824L203.335 323.408L204.044 325.981L204.909 328.542L205.929 331.088L207.103 333.616L208.431 336.123L209.91 338.607L211.54 341.067L213.318 343.498L215.243 345.9L217.313 348.269L219.527 350.604L221.88 352.901L224.373 355.159L227.001 357.375L229.763 359.547L232.656 361.674L235.676 363.753L238.822 365.782L242.089 367.759L245.475 369.681L248.976 371.548L252.588 373.357L256.309 375.106L260.135 376.795L264.061 378.419L268.084 379.98L272.2 381.476L276.404 382.902L280.693 384.261L285.063 385.549L289.509 386.765L294.027 387.908L298.612 388.978L303.26 389.973L307.966 390.891L312.725 391.734L317.533 392.499L322.386 393.184L327.277 393.791L332.203 394.318L337.159 394.765L342.14 395.132L347.14 395.416L352.155 395.621L357.18 395.743L362.21 395.783L367.24 395.743L372.264 395.621L377.281 395.416L382.281 395.132L387.263 394.765L392.218 394.318L397.143 393.791L402.035 393.184L406.888 392.499L411.697 391.734L416.455 390.891L421.162 389.973L425.808 388.978L430.393 387.908L434.911 386.765L439.357 385.549L443.726 384.261L448.018 382.902L452.222 381.476L456.338 379.98L460.36 378.419L464.287 376.795L468.112 375.106L471.831 373.357L475.446 371.548L478.947 369.681L482.333 367.759L485.599 365.782L488.745 363.753L491.766 361.674L494.656 359.547L497.419 357.375L500.048 355.159L502.542 352.901L504.894 350.604L507.108 348.269L509.178 345.9L511.104 343.498L512.881 341.067L514.511 338.607L515.99 336.123L517.316 333.616L518.491 331.088L519.512 328.542L520.377 325.981L521.086 323.408L521.637 320.824L522.032 318.233L522.269 315.636L522.349 313.037" stroke="white" stroke-linejoin="round"/>
<path d="M434.565 230.926L436.789 232.102L438.942 233.314L441.019 234.56L443.017 235.839L444.938 237.149L446.777 238.49L448.531 239.859L450.201 241.256L451.785 242.68L453.282 244.127L454.688 245.599L456.004 247.092L457.228 248.606L458.359 250.138L459.394 251.688L460.333 253.254L461.178 254.835L461.923 256.428L462.572 258.032L463.122 259.647L463.572 261.269L463.923 262.897L464.174 264.531L464.324 266.167L464.375 267.805L464.324 305.218L464.174 306.855L463.923 308.488L463.572 310.117L463.122 311.739L462.572 313.353L461.923 314.957L461.178 316.55L460.333 318.131L459.394 319.697L458.359 321.247L457.228 322.78L456.004 324.293L454.688 325.787L453.282 327.258L451.785 328.706L450.201 330.129L448.531 331.526L446.777 332.896L444.938 334.236L443.017 335.546L441.019 336.825L438.942 338.071L436.789 339.283L434.565 340.459L432.27 341.6L429.904 342.702L427.472 343.766L424.978 344.791L422.421 345.774L419.804 346.717L417.132 347.616L414.407 348.472L411.629 349.284L408.805 350.051L405.932 350.772L403.018 351.446L400.065 352.073H400.047L397.058 352.653L396.893 352.684L394.049 353.183L393.896 353.207L390.993 353.664L387.909 354.097L384.8 354.479L384.721 354.488L381.669 354.812L378.519 355.093L375.354 355.324L375.243 355.33L372.177 355.504L368.989 355.632L368.865 355.635L365.795 355.71L365.711 355.71L362.598 355.735L359.705 355.712L359.558 355.711L359.409 355.71L359.402 355.71L356.332 355.635L356.207 355.632L353.02 355.504L349.954 355.33L349.87 355.326L349.842 355.324L346.677 355.093L343.527 354.812L340.476 354.488L340.396 354.479L337.287 354.097L334.203 353.664L331.3 353.207L331.147 353.183L328.303 352.684L328.139 352.653L325.15 352.073H325.132L322.178 351.446L319.264 350.772L316.392 350.051L313.567 349.284L310.789 348.472L308.063 347.616L305.391 346.717L302.775 345.774L300.218 344.791L297.723 343.766L295.292 342.702L292.927 341.6L290.631 340.459L288.406 339.283L286.254 338.071L284.178 336.825L282.179 335.546L280.259 334.236L278.421 332.896L276.665 331.526L274.995 330.129L273.411 328.706L271.914 327.258L270.508 325.787L269.192 324.293L267.969 322.78L266.838 321.247L265.803 319.697L264.863 318.131L264.019 316.55L263.272 314.957L262.624 313.353L262.074 311.739L261.624 310.117L261.273 308.488L261.022 306.855L260.872 305.218L260.821 267.805L260.872 266.167L261.022 264.531L261.273 262.897L261.624 261.269L262.074 259.647L262.624 258.032L263.272 256.428L264.019 254.835L264.863 253.254L265.803 251.688L266.838 250.138L267.969 248.606L269.192 247.092L270.508 245.599L271.914 244.127L273.411 242.68L274.995 241.256L276.665 239.859L278.421 238.49L280.259 237.149L282.179 235.839L284.178 234.56L286.254 233.314L288.406 232.102L290.631 230.926L292.927 229.786L295.292 228.683L297.723 227.619L300.218 226.595L302.775 225.61L305.391 224.668L308.063 223.769L310.789 222.913L313.567 222.101L316.392 221.334L319.264 220.614L322.178 219.939L325.132 219.312H325.15L328.139 218.732L328.303 218.702L331.147 218.202L331.3 218.178L334.203 217.721L337.287 217.288L337.389 217.275L340.396 216.906L343.527 216.574L343.587 216.568L346.677 216.292L349.842 216.061L349.87 216.059L349.954 216.055L353.02 215.881L356.207 215.753L356.332 215.75L359.402 215.676H359.409L359.485 215.675L362.598 215.65L365.49 215.673L365.639 215.674L365.788 215.676H365.793L368.865 215.75L368.989 215.753L372.177 215.881L375.243 216.055L375.354 216.061L378.519 216.292L381.61 216.568L381.669 216.574L384.8 216.906L387.807 217.275L387.909 217.288L390.993 217.721L393.896 218.178L394.049 218.202L396.893 218.702L397.058 218.732L400.047 219.312H400.065L403.018 219.939L405.932 220.614L408.805 221.334L411.629 222.101L414.407 222.913L417.132 223.769L419.804 224.668L422.421 225.61L424.978 226.595L427.472 227.619L429.904 228.683L432.27 229.786L434.565 230.926Z" stroke="white" stroke-linejoin="round"/>
<path d="M260.872 267.534L260.821 269.185L260.872 270.837L261.022 272.488L261.273 274.135L261.624 275.777L262.074 277.412L262.624 279.04L263.272 280.658L264.019 282.264L264.863 283.858L265.803 285.437L266.838 287L267.968 288.545L269.192 290.072L270.508 291.577L271.914 293.061L273.41 294.521L274.995 295.957L276.665 297.365L278.421 298.745L280.259 300.097L282.179 301.419L284.178 302.708L286.254 303.964L288.406 305.186L290.631 306.373L292.927 307.522L295.292 308.634L297.723 309.707L300.218 310.74L302.775 311.732L305.391 312.682L308.063 313.589L310.789 314.452L313.567 315.271L316.392 316.044L319.264 316.771L322.178 317.45L325.131 318.083L328.122 318.666L331.147 319.202L334.203 319.688L337.287 320.124L340.396 320.509L343.527 320.844L346.677 321.128L349.842 321.361L353.02 321.542L356.207 321.672L359.401 321.75L362.598 321.776L365.795 321.75L368.988 321.672L372.176 321.542L375.354 321.361L378.52 321.128L381.669 320.844L384.8 320.509L387.908 320.124L390.993 319.688L394.049 319.202L397.073 318.666L400.065 318.083L403.018 317.45L405.932 316.771L408.803 316.044L411.629 315.271L414.406 314.452L417.133 313.589L419.805 312.682L422.421 311.732L424.977 310.74L427.473 309.707L429.904 308.634L432.268 307.522L434.566 306.373L436.79 305.186L438.942 303.964L441.018 302.708L443.018 301.419L444.938 300.097L446.775 298.745L448.53 297.365L450.201 295.957L451.786 294.521L453.281 293.061L454.688 291.577L456.004 290.072L457.228 288.545L458.357 287L459.393 285.437L460.333 283.858L461.176 282.264L461.923 280.658L462.571 279.04L463.122 277.412L463.572 275.777L463.922 274.135L464.173 272.488L464.324 270.837L464.375 269.185" stroke="white" stroke-linejoin="round"/>
<path d="M400.942 223.837L402.134 224.468L403.288 225.117L404.401 225.785L405.472 226.471L406.502 227.173L407.487 227.892L408.427 228.625L409.323 229.374L410.172 230.137L410.974 230.913L411.728 231.702L412.433 232.502L413.089 233.313L413.695 234.135L414.25 234.965L414.753 235.805L415.206 236.652L415.605 237.506L415.953 238.366L416.248 239.231L416.489 240.1L416.677 240.973L416.812 241.848L416.892 242.726L416.919 243.604L416.892 263.656L416.812 264.533L416.677 265.408L416.489 266.281L416.248 267.15L415.953 268.016L415.605 268.875L415.206 269.729L414.753 270.576L414.25 271.416L413.695 272.247L413.089 273.068L412.433 273.879L411.728 274.68L410.974 275.468L410.172 276.244L409.323 277.007L408.427 277.756L407.487 278.49L406.502 279.208L405.472 279.911L404.401 280.596L403.288 281.264L402.134 281.913L400.942 282.544L399.712 283.155L398.444 283.746L397.141 284.316L395.804 284.865L394.433 285.393L393.031 285.898L391.599 286.38L390.138 286.839L388.649 287.274L387.135 287.685L385.596 288.071L384.034 288.432L382.451 288.768H382.441L380.839 289.08L380.751 289.096L379.227 289.363L379.145 289.376L377.589 289.621L375.936 289.853L374.27 290.058L374.227 290.063L372.592 290.236L370.903 290.387L369.207 290.511L369.147 290.514L367.504 290.607L365.795 290.676L365.729 290.678L364.084 290.718L364.038 290.718L362.37 290.731L360.82 290.719L360.74 290.718L360.661 290.718L360.657 290.718L359.011 290.678L358.945 290.676L357.237 290.607L355.593 290.514L355.548 290.512L355.533 290.511L353.837 290.387L352.149 290.236L350.513 290.063L350.471 290.058L348.804 289.853L347.151 289.621L345.595 289.376L345.513 289.363L343.989 289.096L343.901 289.08L342.299 288.768H342.289L340.706 288.432L339.144 288.071L337.605 287.685L336.091 287.274L334.602 286.839L333.141 286.38L331.709 285.898L330.307 285.393L328.936 284.865L327.599 284.316L326.296 283.746L325.029 283.155L323.798 282.544L322.605 281.913L321.452 281.264L320.339 280.596L319.268 279.911L318.239 279.208L317.253 278.49L316.313 277.756L315.417 277.007L314.568 276.244L313.766 275.468L313.012 274.68L312.307 273.879L311.652 273.068L311.046 272.247L310.491 271.416L309.987 270.576L309.535 269.729L309.135 268.875L308.787 268.016L308.492 267.15L308.251 266.281L308.063 265.408L307.928 264.533L307.848 263.656L307.821 243.604L307.848 242.726L307.928 241.848L308.063 240.973L308.251 240.1L308.492 239.231L308.787 238.366L309.135 237.506L309.535 236.652L309.987 235.805L310.491 234.965L311.046 234.135L311.652 233.313L312.307 232.502L313.012 231.702L313.766 230.913L314.568 230.137L315.417 229.374L316.313 228.625L317.253 227.892L318.239 227.173L319.268 226.471L320.339 225.785L321.452 225.117L322.605 224.468L323.798 223.837L325.029 223.226L326.296 222.635L327.599 222.065L328.936 221.516L330.307 220.988L331.709 220.483L333.141 220.001L334.602 219.543L336.091 219.108L337.605 218.697L339.144 218.31L340.706 217.949L342.289 217.613H342.299L343.901 217.302L343.989 217.285L345.513 217.018L345.595 217.005L347.151 216.76L348.804 216.528L348.859 216.521L350.471 216.323L352.149 216.145L352.18 216.142L353.837 215.994L355.533 215.87L355.548 215.869L355.593 215.867L357.237 215.774L358.945 215.705L359.011 215.704L360.657 215.664H360.661L360.702 215.663L362.37 215.65L363.92 215.662L364 215.663L364.08 215.664H364.083L365.729 215.704L365.795 215.705L367.504 215.774L369.147 215.867L369.207 215.87L370.903 215.994L372.56 216.142L372.592 216.145L374.27 216.323L375.881 216.521L375.936 216.528L377.589 216.76L379.145 217.005L379.227 217.018L380.751 217.285L380.839 217.302L382.441 217.613H382.451L384.034 217.949L385.596 218.31L387.135 218.697L388.649 219.108L390.138 219.543L391.599 220.001L393.031 220.483L394.433 220.988L395.804 221.516L397.141 222.065L398.444 222.635L399.712 223.226L400.942 223.837Z" stroke="white" stroke-linejoin="round"/>
<path d="M307.848 243.458L307.821 244.343L307.848 245.229L307.929 246.113L308.063 246.996L308.251 247.876L308.492 248.753L308.787 249.625L309.135 250.492L309.535 251.353L309.987 252.207L310.491 253.053L311.046 253.891L311.651 254.719L312.307 255.538L313.012 256.345L313.766 257.14L314.568 257.923L315.417 258.692L316.313 259.447L317.253 260.187L318.239 260.911L319.268 261.619L320.339 262.31L321.452 262.984L322.605 263.639L323.798 264.275L325.028 264.891L326.296 265.487L327.599 266.062L328.936 266.615L330.307 267.147L331.709 267.656L333.141 268.142L334.602 268.605L336.091 269.044L337.605 269.458L339.144 269.847L340.706 270.212L342.289 270.551L343.892 270.864L345.513 271.151L347.151 271.411L348.804 271.645L350.47 271.851L352.148 272.031L353.837 272.183L355.533 272.308L357.236 272.405L358.945 272.475L360.656 272.516L362.37 272.53L364.083 272.516L365.795 272.475L367.503 272.405L369.207 272.308L370.904 272.183L372.592 272.031L374.269 271.851L375.936 271.645L377.589 271.411L379.227 271.151L380.848 270.864L382.451 270.551L384.034 270.212L385.595 269.847L387.134 269.458L388.649 269.044L390.137 268.605L391.599 268.142L393.031 267.656L394.433 267.147L395.803 266.615L397.141 266.062L398.444 265.487L399.711 264.891L400.942 264.275L402.135 263.639L403.288 262.984L404.401 262.31L405.472 261.619L406.501 260.911L407.486 260.187L408.427 259.447L409.323 258.692L410.172 257.923L410.973 257.14L411.728 256.345L412.433 255.538L413.089 254.719L413.694 253.891L414.249 253.053L414.753 252.207L415.205 251.353L415.605 250.492L415.953 249.625L416.248 248.753L416.489 247.876L416.677 246.996L416.811 246.113L416.892 245.229L416.919 244.343" stroke="white" stroke-linejoin="round"/>
</svg>
