<svg width="725" height="766" viewBox="0 0 725 766" fill="none" xmlns="http://www.w3.org/2000/svg">
<path d="M362.623 326.689L529.509 230.148L362.623 133.89L195.73 230.281L362.623 326.689Z" stroke="white" stroke-linecap="round" stroke-linejoin="round"/>
<path d="M231.275 250.814L197.902 278.814L391.494 356.903L527.065 245.194L513.35 239.495" stroke="white" stroke-linecap="round" stroke-linejoin="round"/>
<path d="M510.935 258.486L519.206 260.785L419.421 384.565L205.682 326.683L232.708 292.857" stroke="white" stroke-linecap="round" stroke-linejoin="round"/>
<path d="M236.066 334.911L217.831 374.122L446.132 409.237L508.775 273.727" stroke="white" stroke-linecap="round" stroke-linejoin="round"/>
<path d="M485.99 323.011L469.721 431.471L234.777 419.54L241.178 377.716" stroke="white" stroke-linecap="round" stroke-linejoin="round"/>
<path d="M259.479 463.246L278.973 504.95L507.135 469.43L486.347 425.228" stroke="white" stroke-linecap="round" stroke-linejoin="round"/>
<path d="M239.157 419.764L252.988 449.362" stroke="white" stroke-linecap="round" stroke-linejoin="round"/>
<path d="M217.831 374.122L235.83 412.643" stroke="white" stroke-linecap="round" stroke-linejoin="round"/>
<path d="M478.465 373.166L490.329 451.534L255.112 463.464L248.614 420.242" stroke="white" stroke-linecap="round" stroke-linejoin="round"/>
<path d="M235.83 412.644L205.682 420.351L305.406 544.131L519.339 486.243L505.659 469.66" stroke="white" stroke-linecap="round" stroke-linejoin="round"/>
<path d="M510.96 488.506L526.793 501.968L333.474 580.462L198.036 468.208L233.011 454.274" stroke="white" stroke-linecap="round" stroke-linejoin="round"/>
<path d="M231.263 495.748L195.863 517.371L362.417 613.677L529.509 517.371L513.241 507.473" stroke="white" stroke-linecap="round" stroke-linejoin="round"/>
<path d="M391.965 596.646C392.401 598.691 392.63 600.814 392.63 602.986C392.63 619.624 379.145 633.11 362.507 633.11C345.869 633.11 332.383 619.624 332.383 602.986C332.383 600.905 332.595 598.878 332.994 596.918" stroke="white" stroke-linecap="round" stroke-linejoin="round"/>
<path d="M362.441 221.695C379.138 221.695 392.674 208.16 392.674 191.463C392.674 174.766 379.138 161.23 362.441 161.23C345.745 161.23 332.209 174.766 332.209 191.463C332.209 208.16 345.745 221.695 362.441 221.695Z" stroke="white" stroke-linecap="round" stroke-linejoin="round"/>
<path d="M385.837 210.309C396.969 214.641 404.284 221.974 404.284 230.287C404.284 243.597 385.553 254.384 362.441 254.384C339.33 254.384 320.599 243.597 320.599 230.287C320.599 222.016 327.835 214.72 338.858 210.382" stroke="white" stroke-linecap="round" stroke-linejoin="round"/>
<path d="M330.987 246.174C338.659 241.141 349.906 237.964 362.448 237.964C374.99 237.964 386.237 241.141 393.903 246.168" stroke="white" stroke-linecap="round" stroke-linejoin="round"/>
</svg>
