<svg width="725" height="766" viewBox="0 0 725 766" fill="none" xmlns="http://www.w3.org/2000/svg">
<path d="M496.996 282.779L501.152 284.975L505.175 287.237L509.056 289.562L512.79 291.947L516.381 294.393L519.817 296.895L523.096 299.45L526.217 302.057L529.178 304.713L531.974 307.413L534.603 310.161L537.061 312.947L539.349 315.771L541.462 318.631L543.398 321.524L545.153 324.446L546.73 327.395L548.123 330.368L549.336 333.362L550.364 336.375L551.204 339.401L551.861 342.439L552.33 345.488L552.611 348.542L552.705 351.599L552.611 421.413L552.33 424.467L551.861 427.515L551.204 430.554L550.364 433.581L549.336 436.593L548.123 439.587L546.73 442.56L545.153 445.509L543.398 448.431L541.462 451.324L539.349 454.184L537.061 457.008L534.603 459.795L531.974 462.541L529.178 465.243L526.217 467.898L523.096 470.505L519.817 473.061L516.381 475.562L512.79 478.007L509.056 480.393L505.175 482.718L501.152 484.98L496.996 487.175L492.706 489.303L488.285 491.361L483.74 493.346L479.079 495.258L474.299 497.094L469.41 498.852L464.416 500.53L459.322 502.128L454.131 503.643L448.853 505.073L443.484 506.418L438.039 507.677L432.52 508.847H432.486L426.9 509.93L426.592 509.986L421.277 510.918L420.992 510.963L415.567 511.817L409.803 512.623L403.992 513.337L403.845 513.353L398.141 513.957L392.254 514.483L386.339 514.914L386.131 514.925L380.401 515.249L374.443 515.489L374.212 515.495L368.475 515.633L368.318 515.634L362.5 515.681L357.094 515.638L356.818 515.635L356.541 515.633L356.527 515.633L350.789 515.495L350.557 515.489L344.6 515.249L338.869 514.925L338.714 514.917L338.661 514.914L332.746 514.483L326.859 513.957L321.157 513.353L321.008 513.337L315.198 512.623L309.435 511.817L304.008 510.963L303.723 510.918L298.407 509.986L298.101 509.93L292.516 508.847H292.481L286.961 507.677L281.515 506.418L276.149 505.073L270.868 503.643L265.678 502.128L260.583 500.53L255.589 498.852L250.7 497.094L245.922 495.258L241.259 493.346L236.715 491.361L232.296 489.303L228.005 487.175L223.847 484.98L219.825 482.718L215.945 480.393L212.209 478.007L208.621 475.562L205.185 473.061L201.905 470.505L198.783 467.898L195.822 465.243L193.026 462.541L190.397 459.795L187.939 457.008L185.652 454.184L183.54 451.324L181.604 448.431L179.847 445.509L178.271 442.56L176.876 439.587L175.664 436.593L174.637 433.581L173.795 430.554L173.139 427.515L172.67 424.467L172.389 421.413L172.295 351.599L172.389 348.542L172.67 345.488L173.139 342.439L173.795 339.401L174.637 336.375L175.664 333.362L176.876 330.368L178.271 327.395L179.847 324.446L181.604 321.524L183.54 318.631L185.652 315.771L187.939 312.947L190.397 310.161L193.026 307.413L195.822 304.713L198.783 302.057L201.905 299.45L205.185 296.895L208.621 294.393L212.209 291.947L215.945 289.562L219.825 287.237L223.847 284.975L228.005 282.779L232.296 280.653L236.715 278.594L241.259 276.608L245.922 274.698L250.7 272.861L255.589 271.102L260.583 269.425L265.678 267.827L270.868 266.313L276.149 264.882L281.515 263.536L286.961 262.279L292.481 261.108H292.516L298.101 260.025L298.407 259.968L303.723 259.036L304.008 258.992L309.435 258.138L315.198 257.331L315.388 257.307L321.008 256.618L326.859 255.998L326.971 255.988L332.746 255.472L338.661 255.042L338.714 255.038L338.869 255.03L344.6 254.706L350.557 254.466L350.789 254.461L356.527 254.322H356.541L356.683 254.32L362.5 254.274L367.906 254.317L368.184 254.318L368.462 254.322H368.472L374.212 254.461L374.443 254.466L380.401 254.706L386.131 255.03L386.339 255.042L392.254 255.472L398.031 255.988L398.141 255.998L403.992 256.618L409.612 257.307L409.803 257.331L415.567 258.138L420.992 258.992L421.277 259.036L426.592 259.968L426.9 260.025L432.486 261.108H432.52L438.039 262.279L443.484 263.536L448.853 264.882L454.131 266.313L459.322 267.827L464.416 269.425L469.41 271.102L474.299 272.861L479.079 274.698L483.74 276.608L488.285 278.594L492.706 280.653L496.996 282.779Z" stroke="white" stroke-linejoin="round"/>
<path d="M172.389 351.092L172.295 354.174L172.389 357.256L172.671 360.336L173.139 363.409L173.795 366.474L174.637 369.526L175.664 372.563L176.876 375.582L178.271 378.58L179.847 381.554L181.604 384.5L183.54 387.417L185.652 390.3L187.939 393.149L190.397 395.958L193.026 398.727L195.822 401.452L198.783 404.13L201.905 406.758L205.185 409.334L208.621 411.857L212.208 414.323L215.944 416.729L219.825 419.073L223.847 421.353L228.005 423.567L232.296 425.712L236.715 427.787L241.259 429.79L245.922 431.716L250.7 433.568L255.589 435.341L260.583 437.033L265.678 438.645L270.868 440.172L276.149 441.615L281.515 442.97L286.961 444.239L292.481 445.419L298.07 446.508L303.723 447.507L309.434 448.414L315.198 449.227L321.008 449.947L326.859 450.572L332.745 451.102L338.661 451.537L344.6 451.875L350.557 452.117L356.525 452.262L362.5 452.31L368.474 452.262L374.442 452.117L380.4 451.875L386.339 451.537L392.256 451.102L398.141 450.572L403.992 449.947L409.801 449.227L415.566 448.414L421.278 447.507L426.929 446.508L432.52 445.419L438.038 444.239L443.484 442.97L448.85 441.615L454.131 440.172L459.321 438.645L464.418 437.033L469.411 435.341L474.3 433.568L479.078 431.716L483.742 429.79L488.285 427.787L492.703 425.712L496.996 423.567L501.154 421.353L505.176 419.073L509.055 416.729L512.792 414.323L516.38 411.857L519.813 409.334L523.095 406.758L526.218 404.13L529.179 401.452L531.973 398.727L534.603 395.958L537.061 393.149L539.349 390.3L541.459 387.417L543.396 384.5L545.152 381.554L546.728 378.58L548.123 375.582L549.335 372.563L550.363 369.526L551.205 366.474L551.86 363.409L552.328 360.336L552.61 357.256L552.705 354.174" stroke="white" stroke-linejoin="round"/>
<path d="M463.877 382.039L461.05 380.186L458.127 378.387L455.11 376.644L452.003 374.958L448.809 373.33L445.53 371.765L442.171 370.26L438.734 368.819L435.223 367.444L431.641 366.135L427.992 364.894L422.761 363.421M300.164 364.663L295.504 366.135L291.92 367.444L288.41 368.819L284.973 370.26L281.614 371.765L278.335 373.33L275.141 374.958L272.035 376.644L269.017 378.387L266.094 380.186L263.266 382.039L260.539 383.944" stroke="white" stroke-linejoin="round"/>
<path d="M315.523 257.683L314.583 256.73L313.008 255.035L311.479 253.254L310.003 251.394L308.583 249.462L307.228 247.466L305.941 245.413L304.728 243.313L303.593 241.173L302.541 239.002L301.974 237.711L301.577 236.807L300.704 234.599L299.924 232.385L299.243 230.174L298.888 228.884L298.649 227.979L298.257 226.5L297.738 224.138L297.333 221.809L297.041 219.519L296.8 217.469L296.739 216.697L296.611 215.064L296.549 212.723V210.341L296.616 207.925L296.816 205.595L297.09 202.947L297.442 200.587L297.991 197.854L298.506 195.492L299.165 193.255L300.019 190.376L300.854 188.181L301.985 185.303L303.001 183.18L304.402 180.336L305.602 178.311L307.264 175.535L309.144 172.9L310.558 170.958L312.673 168.44L314.262 166.658L316.596 164.285L318.353 162.684L320.884 160.481L323.579 158.48L325.505 157.07L328.356 155.275L330.42 154.084L333.4 152.514L333.984 152.257L335.585 151.551L338.667 150.22L341.841 149.13L344.108 148.409L347.329 147.576L349.668 147.091L352.907 146.519L354.785 146.321L355.296 146.267L358.52 145.957L360.939 145.919L361.756 145.906L364.11 145.88L367.275 146.088L369.623 146.271L372.683 146.731L375.001 147.105L377.37 147.673L377.923 147.806L380.189 148.354L382.496 149.089L385.138 149.98L385.749 150.222L387.357 150.856L389.79 151.943L391.909 152.934L394.034 154.084L396.1 155.275L398.095 156.5L400.085 157.865L401.74 159.1L403.579 160.496L405.396 162.013L407.183 163.643L408.931 165.381L409.872 166.333L411.447 168.028L412.975 169.81L414.453 171.67L415.87 173.602L417.228 175.598L418.515 177.65L419.726 179.75L420.86 181.89L421.912 184.062L422.876 186.256L423.752 188.465L424.531 190.679L425.213 192.889L425.565 194.179L426.197 196.563L426.717 198.925L427.1 201.121L427.123 201.255L427.414 203.544L427.655 205.595L427.843 207.999L427.905 210.341V212.723L427.84 215.139L427.637 217.468L427.364 220.116L427.011 222.477L426.465 225.209L425.947 227.572L425.289 229.809L425.127 230.354L424.437 232.688L423.599 234.882L422.471 237.761L421.454 239.884L420.052 242.728L418.853 244.752L418.433 245.455L417.19 247.529L415.309 250.163L413.898 252.106L411.782 254.624L410.192 256.406" stroke="white" stroke-linejoin="round"/>
<path d="M349.418 296.313L348.439 296.358L344.842 296.525L338.639 297.008L334.159 297.417L327.99 298.119L323.648 298.727L317.569 299.647L311.668 300.77L308.601 301.365L307.484 301.581L301.776 302.906L297.823 303.911L292.363 305.424L288.674 306.614L283.513 308.301L278.666 310.159L275.3 311.509L270.831 313.511L267.787 315.014L263.736 317.137L261.029 318.776L257.428 320.998L254.244 323.34L251.947 325.047L249.263 327.446L247.317 329.236L245.151 331.664L243.552 333.515L241.917 335.943L240.655 337.83L239.669 339.823L238.617 342.127L237.943 344.118L237.417 346.351L237.034 348.316L236.906 350.354V352.363L237.026 354.337L237.271 355.714L237.386 356.366L237.85 358.095L238.407 360.026L239.185 361.991L240.179 363.983L240.928 365.23L241.386 365.994L242.066 367.082L243.371 368.946L244.863 370.813L246.536 372.676L247.297 373.438L248.383 374.527L250.397 376.358L252.57 378.163L254.893 379.935L257.358 381.666L259.955 383.349L262.673 384.978L265.501 386.548L268.428 388.05L271.444 389.479L273.245 390.283L274.517 390.839L276.597 391.749L280.019 393.123L283.321 394.338L283.497 394.402L287.017 395.58L290.188 396.622L293.998 397.773L297.823 398.806L301.776 399.811L305.849 400.781L309.906 401.617L314.563 402.533L318.817 403.272L323.876 404.023L328.288 404.644L332.634 405.106L338.228 405.696L342.669 406.013L348.529 406.401L353.026 406.554L359.088 406.73L363.591 406.709L369.793 406.665L375.968 406.404L380.544 406.191L386.746 405.709L391.227 405.3L397.396 404.597L401.735 403.989L407.814 403.07L413.718 401.947L417.9 401.135L423.608 399.811L427.565 398.806L433.024 397.292L436.711 396.103L441.872 394.415L446.719 392.557L450.084 391.207L454.554 389.206L457.599 387.703L461.651 385.579L464.353 383.941L467.955 381.719L470.336 379.97L471.141 379.377L473.437 377.67L476.122 375.271L478.07 373.48L480.231 371.052L481.835 369.201L483.158 367.234L483.467 366.773L484.728 364.887L485.719 362.894L486.766 360.59L487.441 358.599L487.965 356.365L488.353 354.401L488.477 352.363V350.354L488.359 348.379L487.998 346.351L487.537 344.621L486.98 342.691L486.935 342.578L486.203 340.726L485.207 338.734L483.996 336.723L483.321 335.635L482.015 333.77L480.524 331.903L478.846 330.04L477 328.19L474.985 326.358L472.813 324.553L470.494 322.782L468.028 321.051L465.428 319.367L462.715 317.738L459.884 316.169L456.957 314.667L453.94 313.237L452.139 312.434L448.79 310.968L445.368 309.593L441.889 308.314L438.366 307.136L435.197 306.095L431.386 304.944L427.565 303.911L423.608 302.906L419.538 301.936L415.48 301.1L410.82 300.183L407.741 299.649L406.57 299.445L401.51 298.693L397.092 298.073L392.752 297.611L391.694 297.499L387.157 297.02L382.716 296.704L376.857 296.316L372.36 296.162L366.298 295.986L361.79 296.008L360.225 296.019L355.593 296.051L349.418 296.313Z" stroke="white" stroke-linejoin="round"/>
<path d="M297.726 398.609L297.041 395.476L296.8 393.426L296.739 392.654L296.611 391.021L296.549 388.68V386.298L296.616 383.882L296.816 381.552L297.09 378.904L297.442 376.544L297.991 373.811L298.506 371.449L299.165 369.212L300.019 366.333L300.854 364.138L301.985 361.26L303.001 359.137L304.402 356.293L305.602 354.268L307.264 351.492L309.144 348.857L310.558 346.915L312.673 344.397L314.262 342.615L316.596 340.242L318.353 338.641L320.884 336.438L323.579 334.437L325.505 333.027L328.356 331.232L330.42 330.041L333.4 328.471L333.984 328.214L335.585 327.508L338.667 326.177L341.841 325.087L344.108 324.366L347.329 323.533L349.668 323.048L352.907 322.476L354.785 322.278L355.296 322.224L358.52 321.914L360.939 321.876L361.756 321.863L364.11 321.837L367.275 322.045L369.623 322.228L372.683 322.688L375.001 323.062L377.37 323.63L377.923 323.763L380.189 324.311L382.496 325.046L385.138 325.937L385.749 326.179L387.357 326.813L389.79 327.9L391.909 328.891L394.034 330.041L396.1 331.232L398.095 332.457L400.085 333.822L401.74 335.057L403.579 336.453L405.396 337.97L407.183 339.6L408.931 341.338L409.872 342.29L411.447 343.985L412.975 345.767L414.453 347.627L415.87 349.559L417.228 351.555L418.515 353.607L419.726 355.707L420.86 357.848L421.912 360.019L422.876 362.213L423.752 364.422L424.531 366.636L425.213 368.846L425.565 370.136L426.197 372.52L426.717 374.882L427.1 377.078L427.123 377.212L427.414 379.501L427.655 381.552L427.843 383.956L427.905 386.298V388.68L427.84 391.096L427.637 393.425L427.364 396.073L427.011 398.434" stroke="white" stroke-linejoin="round"/>
<path d="M312.673 511.831L310.558 514.349L309.144 516.291L307.264 518.926L305.602 521.703L304.402 523.727L303.001 526.571L301.985 528.694L300.854 531.572L300.019 533.767L299.165 536.646L298.506 538.883L297.991 541.246L297.442 543.978L297.09 546.338L296.816 548.986L296.616 551.316L296.549 553.732V556.114L296.611 558.455L296.739 560.088L296.8 560.86L297.041 562.911L297.333 565.2L297.738 567.529L298.257 569.891L298.649 571.371L298.888 572.276L299.243 573.565L299.924 575.776L300.704 577.99L301.577 580.198L301.974 581.102L302.541 582.393L303.593 584.564L304.728 586.704L305.941 588.805L307.228 590.857L308.583 592.853L310.003 594.785L311.479 596.645L313.008 598.426L314.583 600.121L315.523 601.074L316.187 601.734L317.273 602.812L319.06 604.442L320.784 605.882L320.876 605.958L322.714 607.355L324.369 608.59L326.359 609.955L328.356 611.18L330.42 612.371L332.547 613.521L334.665 614.512L337.097 615.599L339.318 616.475L341.96 617.365L344.263 618.101L346.532 618.649L349.454 619.349L351.772 619.724L354.832 620.184L357.18 620.366L360.345 620.575L362.696 620.549L365.935 620.498L369.159 620.188L371.548 619.936L374.787 619.364L377.126 618.879L380.347 618.046L382.613 617.325L385.787 616.235L388.87 614.904L391.054 613.941L394.034 612.371L396.1 611.18L398.951 609.385L400.876 607.975L403.571 605.973L406.101 603.771L407.858 602.17L410.192 599.797L411.782 598.015L413.898 595.497L415.309 593.555L417.19 590.92L418.433 588.846L418.853 588.143L420.052 586.119L421.454 583.275L422.471 581.152L423.599 578.273L424.437 576.079L425.127 573.746L425.289 573.2L425.947 570.963L426.465 568.6L427.011 565.868L427.364 563.507L427.637 560.86L427.84 558.53L427.905 556.114V553.732L427.843 551.391L427.655 548.986L427.414 546.935L427.123 544.646L427.1 544.512L426.717 542.316L426.197 539.955L425.565 537.57L425.213 536.28L424.531 534.07L423.752 531.856L422.876 529.647L421.912 527.453L420.86 525.282L419.726 523.141L418.515 521.041L417.228 518.989L415.87 516.993L414.453 515.061L412.453 512.454" stroke="white" stroke-linejoin="round"/>
</svg>
